<?xml version="1.0" encoding="utf-8"?>
<!-- Generator: Adobe Illustrator 16.0.0, SVG Export Plug-In . SVG Version: 6.00 Build 0)  -->
<!DOCTYPE svg PUBLIC "-//W3C//DTD SVG 1.1//EN" "http://www.w3.org/Graphics/SVG/1.1/DTD/svg11.dtd">
<svg version="1.1" id="Livello_1" xmlns="http://www.w3.org/2000/svg" xmlns:xlink="http://www.w3.org/1999/xlink" x="0px" y="0px"
	 width="749.961px" height="229.488px" viewBox="0 0 749.961 229.488" enable-background="new 0 0 749.961 229.488"
	 xml:space="preserve">
<g id="Livello_1_1_">
</g>
<g>
	<path fill="#E5992F" d="M678.438,120.957c0,0,1.447-8.925,0.447-24.425s-0.5-46.063,29-45.063s35,9.47,35,9.47s-7,38.334-25,60.034
		c2.5,22.199-14,97.935-14,97.935h-243.5C460.387,218.907,576.991,104.757,678.438,120.957z"/>
	<path fill="#261D20" d="M581.887,34.24c-57.5,0-93,51.104-93,84.371c0,41.629,17.5,99.797,97.5,99.797s92.5-73.281,92.5-85.816
		C678.887,120.057,673.887,34.24,581.887,34.24z"/>
	<g>
		<g>
			<polyline fill="none" stroke="#261D20" stroke-miterlimit="10" points="681.022,18.77 705.372,51.402 707.887,51.407 
				723.561,12.224 			"/>
			<g>
				<circle fill="#261D20" cx="681.135" cy="18.921" r="3.76"/>
			</g>
			<g>
				<circle fill="#261D20" cx="723.491" cy="12.398" r="3.76"/>
			</g>
		</g>
	</g>
	<path fill="none" stroke="#FFFFFF" stroke-width="3" stroke-linecap="round" stroke-linejoin="round" stroke-miterlimit="10" d="
		M620.987,212.72c-30.602,1.188-83.602-18.146-83.268-74.146c0.332-56,79.197-64.332,83.268-12.332
		c4.064,51.999-64.602,33-46.602,2.666"/>
	<path fill="#FAF1DC" d="M709.219,61.741c-8.842,0.268-13.498,10.5-13.166,15.5c0.334,5,3,13,16.5,13.166
		c7.5,0,12.666-7.832,12.334-14.333C724.553,69.574,720.219,61.408,709.219,61.741z"/>
	<path fill="#362C2F" d="M711.553,66.907c-5.346,0.356-8.834,6-8.166,10.334c0.666,4.332,5.166,8.166,10.166,7.166
		s7.334-4.51,7.5-8.338S716.553,66.574,711.553,66.907z"/>
	<path fill="#FFFFFF" d="M715.887,72.407c-2.102,0.534-2.834,1.334-2.5,2.5c0.332,1.166,0.166,2.167,2.5,1.834
		C718.219,76.407,717.67,71.954,715.887,72.407z"/>
</g>
<g>
	<path fill="#F4A34A" d="M380.131,140.747c0,0,1.162-7.417,0.359-19.865c-0.804-12.446-0.402-37.115,23.289-36.313
		c23.689,0.803,28.105,7.541,28.105,7.541s-5.621,31.254-20.076,48.681c2.01,17.827-11.242,79.116-11.242,79.116H205.021
		C205.021,219.907,298.661,127.737,380.131,140.747z"/>
	<path fill="#261D20" d="M302.593,70.607c-46.176,0-74.685,41.04-74.685,67.755c0,33.432,14.054,80.144,78.299,80.144
		s74.284-58.85,74.284-68.916C380.491,139.524,376.475,70.607,302.593,70.607z"/>
	<g>
		<g>
			<polyline fill="none" stroke="#261D20" stroke-miterlimit="10" points="382.627,58.748 401.758,84.39 403.78,84.394 
				416.106,53.58 			"/>
			<g>
				<circle fill="#261D20" cx="382.741" cy="58.899" r="3.76"/>
			</g>
			<g>
				<circle fill="#261D20" cx="416.036" cy="53.754" r="3.76"/>
			</g>
		</g>
	</g>
	<path fill="none" stroke="#FFFFFF" stroke-width="3" stroke-linecap="round" stroke-linejoin="round" stroke-miterlimit="10" d="
		M333.993,213.938c-24.573,0.954-67.136-14.573-66.868-59.545c0.267-44.972,63.601-51.662,66.868-9.903
		c3.266,41.759-51.878,26.501-37.423,2.141"/>
	<path fill="#FAF1DC" d="M404.85,92.692c-7.102,0.215-10.842,8.432-10.572,12.447c0.268,4.016,2.408,10.438,13.25,10.573
		c6.021,0,10.172-6.291,9.904-11.511S413.684,92.425,404.85,92.692z"/>
	<path fill="#362C2F" d="M406.725,96.841c-4.293,0.287-7.096,4.819-6.559,8.3c0.535,3.479,4.148,6.559,8.164,5.756
		c4.016-0.805,5.889-3.623,6.023-6.697C414.487,101.124,410.739,96.573,406.725,96.841z"/>
</g>
<g>
	<path fill="#EFB67D" d="M120.112,169.096c0,0,0.736-4.538,0.228-12.422c-0.509-7.883-0.254-23.425,14.748-22.916
		c15.002,0.51,17.799,4.815,17.799,4.815s-3.56,19.494-12.713,30.529c1.271,11.29-7.12,49.804-7.12,49.804H9.225
		C9.225,218.907,68.522,160.857,120.112,169.096z"/>
	<path fill="#261D20" d="M71.012,124.997c-29.241,0-47.294,25.988-47.294,42.905c0,21.17,8.899,50.751,49.583,50.751
		c40.684,0,47.04-37.267,47.04-43.642C120.34,168.638,117.797,124.997,71.012,124.997z"/>
	<g>
		<g>
			<polyline fill="none" stroke="#261D20" stroke-miterlimit="10" points="122.476,118.536 133.809,133.725 135.088,133.727 
				142.406,115.431 			"/>
			<g>
				<circle fill="#261D20" cx="122.589" cy="118.687" r="3.76"/>
			</g>
			<g>
				<circle fill="#261D20" cx="142.337" cy="115.605" r="3.76"/>
			</g>
		</g>
	</g>
	<path fill="none" stroke="#FFFFFF" stroke-width="3" stroke-linecap="round" stroke-linejoin="round" stroke-miterlimit="10" d="
		M90.896,215.76c-15.561,0.604-42.514-9.229-42.344-37.705c0.169-28.479,40.275-32.717,42.344-6.272
		c2.068,26.444-32.852,16.782-23.698,1.356"/>
	<path fill="#FAF1DC" d="M135.766,138.981c-4.497,0.137-6.865,5.34-6.695,7.883c0.17,2.543,1.525,6.611,8.391,6.695
		c3.814,0,6.441-3.982,6.271-7.288C143.563,142.965,141.36,138.813,135.766,138.981z"/>
	<path fill="#362C2F" d="M136.953,141.609c-2.718,0.182-4.492,3.052-4.153,5.255c0.339,2.203,2.628,4.153,5.17,3.645
		c2.543-0.509,3.729-2.294,3.814-4.239C141.868,144.321,139.495,141.439,136.953,141.609z"/>
	<path fill="#FFFFFF" d="M139.156,144.406c-1.068,0.271-1.441,0.678-1.271,1.271c0.169,0.594,0.085,1.103,1.271,0.934
		C140.343,146.44,140.063,144.176,139.156,144.406z"/>
</g>
</svg>
